<svg width="36" height="36" viewBox="0 0 36 36" fill="none" xmlns="http://www.w3.org/2000/svg">
<path d="M9.81655 13.325L8.27625 10.7578H19.1011L11.0146 24.4066H8.01953L14.6086 13.325H9.81655Z" fill="#CACACA"/>
<path d="M27.2736 24.406L20.4278 12.918L18.9303 15.421L22.781 21.8389H15.1118L13.582 24.406H27.2736Z" fill="#CACACA"/>
<path fill-rule="evenodd" clip-rule="evenodd" d="M17.6279 2.56717C9.31008 2.56717 2.56717 9.31008 2.56717 17.6279C2.56717 25.9457 9.31008 32.6886 17.6279 32.6886C25.9457 32.6886 32.6886 25.9457 32.6886 17.6279C32.6886 9.31008 25.9457 2.56717 17.6279 2.56717ZM0 17.6279C0 7.89228 7.89228 0 17.6279 0C27.3635 0 35.2557 7.89228 35.2557 17.6279C35.2557 27.3635 27.3635 35.2557 17.6279 35.2557C7.89228 35.2557 0 27.3635 0 17.6279Z" fill="#CACACA"/>
</svg>
