<svg width="1280" height="1280" viewBox="0 0 1280 1280" fill="none" xmlns="http://www.w3.org/2000/svg">
<rect width="1280" height="1280" fill="white"/>
<path d="M457 540L421 480H674L485 799H415L569 540H457Z" fill="black"/>
<path d="M865 799L705 530.5L670 589L760 739H580.754L545 799L865 799Z" fill="black"/>
<path fill-rule="evenodd" clip-rule="evenodd" d="M640 288C445.596 288 288 445.596 288 640C288 834.404 445.596 992 640 992C834.404 992 992 834.404 992 640C992 445.596 834.404 288 640 288ZM228 640C228 412.459 412.459 228 640 228C867.541 228 1052 412.459 1052 640C1052 867.541 867.541 1052 640 1052C412.459 1052 228 867.541 228 640Z" fill="black"/>
</svg>
